<?xml version="1.0" encoding="utf-8"?>
<!-- Generator: Adobe Illustrator 24.0.2, SVG Export Plug-In . SVG Version: 6.00 Build 0)  -->
<svg version="1.1" id="Layer_1" xmlns="http://www.w3.org/2000/svg" xmlns:xlink="http://www.w3.org/1999/xlink" x="0px" y="0px"
	 viewBox="0 0 314.09 125.22" style="enable-background:new 0 0 314.09 125.22;" xml:space="preserve">
<style type="text/css">
	.st0{fill:#2A4052;}
	.st1{fill:#ECCB7B;}
	.st2{fill:#32896E;}
</style>
<g>
	<g>
		<path class="st0" d="M246.91,72.6c-0.73,3.5,1.87,7.72-1.63,10.52c-5.42,4.34-11.57,6.81-18.76,5.57
			c-6.02-1.04-10.43-4.32-12.73-9.87c-3.97-9.54-4.04-19.3,0.23-28.73c3.18-7.03,9.58-9.12,16.76-8.95
			c6.79,0.16,11.46,3.64,14.06,9.95c0.84,2.03,1.33,3.62-1.81,3.6c-0.72,0-1.45,0.34-2.17,0.52c-2.53,0.66-4.64,0.92-5.5-2.57
			c-0.57-2.33-2.68-3.65-5.15-3.66c-2.89,0-5.65,0.92-6.84,3.74c-3.39,8.09-3.51,16.35,0.27,24.28c2.11,4.42,9.36,5.46,13.07,2.13
			c2.36-2.12,1.12-5.22,0.91-7.78c-0.17-2.01-2.47-0.67-3.76-1.04c-0.35-0.1-0.75-0.01-1.12-0.01c-3.82,0-5.86-3.23-4.25-6.67
			c0.51-1.1,1.43-0.8,2.23-0.8c4.62-0.03,9.24,0.05,13.86-0.05c1.78-0.04,2.46,0.51,2.37,2.33
			C246.81,67.61,246.91,70.11,246.91,72.6z"/>
		<path class="st0" d="M295.24,72.75c0,1-0.17,2.03,0.03,2.99c1.17,5.58-1.91,8.3-6.43,10.58c-13.59,6.84-26.41,0.56-28.84-14.42
			c-1.18-7.25-1.04-14.49,2.08-21.32c3.28-7.18,9.51-9.56,16.86-9.45c6.78,0.1,11.51,3.46,14.16,9.78c0.93,2.22,1.37,3.82-1.92,3.8
			c-0.72-0.01-1.46,0.32-2.17,0.54c-2.47,0.73-4.01,0.59-5.25-2.43c-2.15-5.22-8.87-5.18-11.99-0.25
			c-3.37,5.31-3.1,19.84,0.47,24.98c2.64,3.81,9.79,4.77,12.99,1.45c2.12-2.2,0.97-5.27,0.71-7.86c-0.16-1.59-2.33-0.58-3.57-0.82
			c-0.6-0.11-1.25,0.04-1.87-0.03c-1.19-0.14-3.12,0.62-3.42-0.54c-0.52-1.98-0.28-4.21-0.1-6.31c0.08-0.86,1.21-0.62,1.91-0.62
			c4.75-0.02,9.5,0.05,14.24-0.04c1.6-0.03,2.23,0.42,2.15,2.1C295.15,67.5,295.24,70.13,295.24,72.75z"/>
		<path class="st0" d="M181.38,41.84c4.37,0,8.74,0.14,13.09-0.04c3.68-0.16,2.24,2.45,2.38,4.09c0.16,1.75,0.67,3.81-2.51,3.64
			c-2.56-0.14-5.94-1.21-7.56,0.5c-1.74,1.83-0.54,5.22-0.58,7.93c-0.09,6.61,0.06,13.22-0.08,19.82c-0.05,2.28,0.64,3.24,2.95,2.93
			c0.86-0.12,1.74-0.02,2.62-0.02c5.67,0,5.79,0.22,5.25,5.8c-0.15,1.53-0.74,1.84-2.07,1.84c-9.11-0.03-18.21,0.02-27.32-0.03
			c-3.71-0.02-1.57-2.92-1.93-4.47c-0.35-1.49-0.52-3.36,2.17-3.16c2.11,0.16,4.24-0.05,6.36,0.05c1.63,0.08,2.19-0.57,2.19-2.16
			c-0.04-8.98-0.04-17.95,0-26.93c0.01-1.56-0.5-2.29-2.16-2.18c-1.61,0.1-3.27-0.16-4.86,0.06c-3.17,0.43-3.87-0.86-3.9-3.9
			c-0.03-3.19,0.93-4.03,3.98-3.82C173.38,42.04,177.39,41.84,181.38,41.84z"/>
		<path class="st1" d="M38.79,97.71c-0.06,2.7-1.27,4.1-3.87,4.1c-2.77,0-4.21-1.79-4.2-4.19c0.01-2.21,1.37-4.07,3.96-4.01
			C37.34,93.67,38.66,95.27,38.79,97.71z"/>
		<path class="st1" d="M56.63,103.26c2.61,0.51,4.54,1.72,4.36,4.37c-0.16,2.32-1.81,3.84-4.25,3.82c-2.68-0.03-4.14-1.81-4.14-4.28
			C52.59,104.65,54.56,103.7,56.63,103.26z"/>
		<path class="st1" d="M101.18,89.77c2.85,0.24,4.3,1.62,4.27,4.11c-0.02,2.47-1.56,4.03-3.98,4.07c-2.62,0.04-4.27-1.58-4.16-4.23
			C97.4,91.26,99.13,90.08,101.18,89.77z"/>
		<path class="st1" d="M76.88,106.11c-0.05-3,1.6-4.22,3.99-4.17c2.38,0.05,4.17,1.54,4.13,3.98c-0.03,2.27-1.37,4.12-3.98,4.07
			C78.46,109.93,76.71,108.75,76.88,106.11z"/>
		<path class="st1" d="M26.8,34.24c-0.32,2.11-1.58,3.85-4.27,3.8c-2.58-0.05-3.9-1.95-3.81-4.21c0.09-2.25,1.49-4.04,4.1-3.94
			C25.23,29.98,26.83,31.14,26.8,34.24z"/>
		<path class="st1" d="M90.51,15.22c-0.1,2.35-1.81,3.45-4.16,3.35c-2.36-0.1-4.05-1.59-4.01-4.01c0.05-2.36,1.61-4.1,4.04-4
			C88.81,10.67,90.54,12.09,90.51,15.22z"/>
		<path class="st1" d="M105.45,33.33c-2.39-0.44-4.04-1.9-4.11-4.2c-0.06-2.35,1.6-4.13,3.97-4.16c2.52-0.03,4.33,1.7,4.27,4.25
			C109.53,31.55,107.79,32.93,105.45,33.33z"/>
		<path class="st1" d="M14.96,52.26c3.11,0.04,4.64,1.49,4.68,3.87c0.04,2.47-1.39,4.4-4.08,4.33c-2.42-0.07-3.78-1.7-3.83-4.16
			C11.66,53.77,12.95,52.39,14.96,52.26z"/>
		<path class="st1" d="M43.99,17.02c-0.37,2.61-1.66,4.45-4.26,4.36c-2.24-0.07-4.07-1.37-3.98-3.97c0.08-2.43,1.57-3.9,3.97-4.02
			C42.2,13.26,43.48,14.82,43.99,17.02z"/>
		<path class="st1" d="M63.04,6.53c2.44,0.12,3.97,1.65,3.85,4.01c-0.13,2.34-1.76,3.78-4.36,3.64c-2.43-0.13-3.63-1.4-3.63-3.82
			C58.91,7.71,60.35,6.54,63.04,6.53z"/>
		<path class="st1" d="M23.8,78.27c0.09,3.67-1.52,5.15-3.77,5.19c-2.27,0.04-3.88-1.44-3.87-4.02c0.01-2.49,1.11-3.97,3.76-3.97
			C22.51,75.48,23.75,76.82,23.8,78.27z"/>
		<path class="st2" d="M29.9,53.25c1.65,0.48,2.91,1.33,2.82,3.29c-0.09,2.01-1.49,2.85-3.23,2.81c-1.74-0.03-2.58-1.39-2.67-3
			C26.7,54.32,28.21,53.68,29.9,53.25z"/>
		<path class="st2" d="M33.55,70.86c2.01,0.17,2.94,1.32,2.86,3.19c-0.07,1.71-1.11,2.79-2.83,2.81c-1.92,0.02-3.01-1.2-3.02-3.03
			C30.56,71.98,31.65,70.89,33.55,70.86z"/>
		<path class="st2" d="M66.58,21.9c-0.07,2.28-1.12,3.42-3.02,3.37c-1.68-0.04-2.84-1.11-2.87-2.85c-0.04-1.94,1.17-3.01,3.07-2.99
			C65.47,19.44,66.5,20.4,66.58,21.9z"/>
		<path class="st2" d="M35.38,37.79c2.1,0.19,3.38,0.98,3.4,3c0.02,1.83-1.16,2.78-2.78,2.91c-1.95,0.16-3.01-1.1-3.1-2.94
			C32.81,38.97,34.12,38.21,35.38,37.79z"/>
		<path class="st2" d="M44.78,84.62c1.84,0.41,2.96,1.48,2.84,3.31c-0.11,1.63-1.08,2.74-2.89,2.66c-1.89-0.08-3.02-1.11-3.01-2.99
			C41.72,85.68,43.07,84.89,44.78,84.62z"/>
		<path class="st2" d="M59.93,97.19c-1.78-0.25-2.98-1.27-3.02-3.09c-0.04-1.93,1.26-2.85,3.11-2.88c1.8-0.02,2.71,1.07,2.78,2.76
			C62.88,95.88,61.86,96.94,59.93,97.19z"/>
		<path class="st2" d="M95.82,34.24c1.85,0.34,3.01,1.36,2.84,3.3c-0.15,1.7-1.19,2.84-2.99,2.62c-1.77-0.22-3.07-1.23-2.9-3.22
			C92.92,35.17,94.15,34.4,95.82,34.24z"/>
		<path class="st2" d="M92.97,87.76c-1.91-0.21-3.07-1.24-3.03-3.12c0.03-1.73,1.23-2.83,2.89-2.81c1.82,0.02,3,1.13,2.96,3.1
			C95.76,86.74,94.61,87.52,92.97,87.76z"/>
		<path class="st2" d="M80.36,92.94c-0.28,1.92-1.24,3.12-3.17,2.98c-1.61-0.12-2.89-1-2.8-2.8c0.09-1.83,1.14-3.02,3.1-2.91
			C79.16,90.31,80.16,91.3,80.36,92.94z"/>
		<path class="st2" d="M85.03,26.45c-0.22,1.69-1.07,2.95-2.77,2.99c-1.77,0.04-3.11-0.92-3.2-2.88c-0.09-1.78,0.84-2.8,2.65-2.86
			C83.62,23.62,84.67,24.65,85.03,26.45z"/>
		<path class="st2" d="M50.93,28.55c-0.18,1.78-1.1,2.85-2.84,2.83c-1.89-0.02-3.04-1.17-2.96-3.04c0.08-1.92,1.52-2.86,3.28-2.78
			C50.12,25.63,50.9,26.9,50.93,28.55z"/>
		<path class="st0" d="M149.92,55.37c-2.03-7.21-6.94-11.3-14.18-12.8c-5.69-1.18-11.45-0.51-17.18-0.77
			c-2.1-0.09-2.09,1.05-2.08,2.55c0.04,6.87,0.02,13.74,0.02,20.61c0,6.99,0.04,13.99-0.03,20.98c-0.02,1.69,0.31,2.47,2.24,2.4
			c4.49-0.15,9,0.11,13.49-0.1c9.43-0.45,15.68-5.6,17.91-14.72C151.59,67.48,151.62,61.39,149.92,55.37z M139.85,73.55
			c-1.02,2.99-2.92,5.23-5.99,6.25c-6.3,2.1-7.53,1.21-7.53-5.32c0-3.24,0-6.49,0-9.73c0-4.37,0.02-8.74-0.01-13.1
			c-0.01-1.38,0.11-2.29,1.94-2.38c6.45-0.33,11.19,3.17,12.4,9.51C141.61,63.75,141.49,68.71,139.85,73.55z"/>
	</g>
</g>
</svg>
