<?xml version="1.0" encoding="utf-8"?>
<!-- Generator: Adobe Illustrator 24.0.2, SVG Export Plug-In . SVG Version: 6.00 Build 0)  -->
<svg version="1.1" id="Layer_1" xmlns="http://www.w3.org/2000/svg" xmlns:xlink="http://www.w3.org/1999/xlink" x="0px" y="0px"
	 viewBox="0 0 305 121" style="enable-background:new 0 0 305 121;" xml:space="preserve">
<style type="text/css">
	.st0{fill:#62013C;}
	.st1{fill:#FAE08A;}
	.st2{fill:#FAE089;}
	.st3{fill:#FADF87;}
	.st4{fill:#FAE088;}
	.st5{fill:#C05D81;}
	.st6{fill:#BF5C80;}
	.st7{fill:#BF5A7F;}
	.st8{fill:#C05C80;}
	.st9{fill:#BF5A7E;}
	.st10{fill:#BD567B;}
	.st11{fill:#BE587D;}
</style>
<g>
	<g>
		<path class="st0" d="M243.47,72.04c-0.73,3.5,1.87,7.72-1.63,10.52c-5.42,4.34-11.57,6.81-18.76,5.57
			c-6.02-1.04-10.43-4.32-12.73-9.87c-3.97-9.54-4.04-19.3,0.23-28.73c3.18-7.03,9.58-9.12,16.76-8.95
			c6.79,0.16,11.46,3.64,14.06,9.95c0.84,2.03,1.33,3.62-1.81,3.6c-0.72,0-1.45,0.34-2.17,0.52c-2.53,0.66-4.64,0.92-5.5-2.57
			c-0.57-2.33-2.68-3.65-5.15-3.66c-2.89,0-5.65,0.92-6.84,3.74c-3.39,8.09-3.51,16.35,0.27,24.28c2.11,4.42,9.36,5.46,13.07,2.13
			c2.36-2.12,1.12-5.22,0.91-7.78c-0.17-2.01-2.47-0.67-3.76-1.04c-0.35-0.1-0.75-0.01-1.12-0.01c-3.82,0-5.86-3.23-4.25-6.67
			c0.51-1.1,1.43-0.8,2.23-0.8c4.62-0.03,9.24,0.05,13.86-0.05c1.78-0.04,2.46,0.51,2.37,2.33
			C243.38,67.04,243.47,69.54,243.47,72.04z"/>
		<path class="st0" d="M291.8,72.19c0,1-0.17,2.03,0.03,2.99c1.17,5.58-1.91,8.3-6.43,10.58c-13.59,6.84-26.41,0.56-28.84-14.42
			c-1.18-7.25-1.04-14.49,2.08-21.32c3.28-7.18,9.51-9.56,16.86-9.45c6.78,0.1,11.51,3.46,14.16,9.78c0.93,2.22,1.37,3.82-1.92,3.8
			c-0.72-0.01-1.46,0.32-2.17,0.54c-2.47,0.73-4.01,0.59-5.25-2.43c-2.15-5.22-8.87-5.18-11.99-0.25
			c-3.37,5.31-3.1,19.84,0.47,24.98c2.64,3.81,9.79,4.77,12.99,1.45c2.12-2.2,0.97-5.27,0.71-7.86c-0.16-1.59-2.33-0.58-3.57-0.82
			c-0.6-0.11-1.25,0.04-1.87-0.03c-1.19-0.14-3.12,0.62-3.42-0.54c-0.52-1.98-0.28-4.21-0.1-6.31c0.08-0.86,1.21-0.62,1.91-0.62
			c4.75-0.02,9.5,0.05,14.24-0.04c1.6-0.03,2.23,0.42,2.15,2.1C291.72,66.94,291.8,69.56,291.8,72.19z"/>
		<path class="st0" d="M177.94,41.27c4.37,0,8.74,0.14,13.09-0.04c3.68-0.16,2.24,2.45,2.38,4.09c0.16,1.75,0.67,3.81-2.51,3.64
			c-2.56-0.14-5.94-1.21-7.56,0.5c-1.74,1.83-0.54,5.22-0.58,7.93c-0.09,6.61,0.06,13.22-0.08,19.82c-0.05,2.28,0.64,3.24,2.95,2.93
			c0.86-0.12,1.74-0.02,2.62-0.02c5.67,0,5.79,0.22,5.25,5.8c-0.15,1.53-0.74,1.84-2.07,1.84c-9.11-0.03-18.21,0.02-27.32-0.03
			c-3.71-0.02-1.57-2.92-1.93-4.47c-0.35-1.49-0.52-3.36,2.17-3.16c2.11,0.16,4.24-0.05,6.36,0.05c1.63,0.08,2.19-0.57,2.19-2.16
			c-0.04-8.98-0.04-17.95,0-26.93c0.01-1.56-0.5-2.29-2.16-2.18c-1.61,0.1-3.27-0.16-4.86,0.06c-3.17,0.43-3.87-0.86-3.9-3.9
			c-0.03-3.19,0.93-4.03,3.98-3.82C169.95,41.48,173.95,41.27,177.94,41.27z"/>
		<path class="st1" d="M35.36,97.15c-0.06,2.7-1.27,4.1-3.87,4.1c-2.77,0-4.21-1.79-4.2-4.19c0.01-2.21,1.37-4.07,3.96-4.01
			C33.9,93.1,35.23,94.7,35.36,97.15z"/>
		<path class="st1" d="M53.19,102.69c2.61,0.51,4.54,1.72,4.36,4.37c-0.16,2.32-1.81,3.84-4.25,3.82c-2.68-0.03-4.14-1.81-4.14-4.28
			C49.15,104.09,51.13,103.13,53.19,102.69z"/>
		<path class="st2" d="M97.74,89.2c2.85,0.24,4.3,1.62,4.27,4.11c-0.02,2.47-1.56,4.03-3.98,4.07c-2.62,0.04-4.27-1.58-4.16-4.23
			C93.97,90.69,95.7,89.51,97.74,89.2z"/>
		<path class="st1" d="M73.44,105.55c-0.05-3,1.6-4.22,3.99-4.17c2.38,0.05,4.17,1.54,4.13,3.98c-0.03,2.27-1.37,4.12-3.98,4.07
			C75.02,109.36,73.28,108.18,73.44,105.55z"/>
		<path class="st2" d="M23.36,33.67c-0.32,2.11-1.58,3.85-4.27,3.8c-2.58-0.05-3.9-1.95-3.81-4.21c0.09-2.25,1.49-4.04,4.1-3.94
			C21.8,29.42,23.39,30.57,23.36,33.67z"/>
		<path class="st2" d="M87.07,14.65c-0.1,2.35-1.81,3.45-4.16,3.35c-2.36-0.1-4.05-1.59-4.01-4.01c0.05-2.36,1.61-4.1,4.04-4
			C85.37,10.1,87.1,11.53,87.07,14.65z"/>
		<path class="st3" d="M102.01,32.77c-2.39-0.44-4.04-1.9-4.11-4.2c-0.06-2.35,1.6-4.13,3.97-4.16c2.52-0.03,4.33,1.7,4.27,4.25
			C106.09,30.99,104.35,32.37,102.01,32.77z"/>
		<path class="st4" d="M11.52,51.7c3.11,0.04,4.64,1.49,4.68,3.87c0.04,2.47-1.39,4.4-4.08,4.33c-2.42-0.07-3.78-1.7-3.83-4.16
			C8.23,53.2,9.51,51.83,11.52,51.7z"/>
		<path class="st2" d="M40.56,16.45c-0.37,2.61-1.66,4.45-4.26,4.36c-2.24-0.07-4.07-1.37-3.98-3.97c0.08-2.43,1.57-3.9,3.97-4.02
			C38.77,12.69,40.04,14.26,40.56,16.45z"/>
		<path class="st4" d="M59.6,5.97c2.44,0.12,3.97,1.65,3.85,4.01c-0.13,2.34-1.76,3.78-4.36,3.64c-2.43-0.13-3.63-1.4-3.63-3.82
			C55.47,7.14,56.91,5.98,59.6,5.97z"/>
		<path class="st4" d="M20.37,77.71c0.09,3.67-1.52,5.15-3.77,5.19c-2.27,0.04-3.88-1.44-3.87-4.02c0.01-2.49,1.11-3.97,3.76-3.97
			C19.07,74.91,20.32,76.25,20.37,77.71z"/>
		<path class="st5" d="M26.46,52.69c1.65,0.48,2.91,1.33,2.82,3.29c-0.09,2.01-1.49,2.85-3.23,2.81c-1.74-0.03-2.58-1.39-2.67-3
			C23.27,53.76,24.77,53.12,26.46,52.69z"/>
		<path class="st6" d="M30.12,70.3c2.01,0.17,2.94,1.32,2.86,3.19c-0.07,1.71-1.11,2.79-2.83,2.81c-1.92,0.02-3.01-1.2-3.02-3.03
			C27.13,71.41,28.21,70.33,30.12,70.3z"/>
		<path class="st6" d="M63.14,21.33c-0.07,2.28-1.12,3.42-3.02,3.37c-1.68-0.04-2.84-1.11-2.87-2.85c-0.04-1.94,1.17-3.01,3.07-2.99
			C62.03,18.87,63.07,19.84,63.14,21.33z"/>
		<path class="st5" d="M31.95,37.23c2.1,0.19,3.38,0.98,3.4,3c0.02,1.83-1.16,2.78-2.78,2.91c-1.95,0.16-3.01-1.1-3.1-2.94
			C29.38,38.4,30.69,37.65,31.95,37.23z"/>
		<path class="st7" d="M41.35,84.06c1.84,0.41,2.96,1.48,2.84,3.31c-0.11,1.63-1.08,2.74-2.89,2.66c-1.89-0.08-3.02-1.11-3.01-2.99
			C38.29,85.11,39.63,84.33,41.35,84.06z"/>
		<path class="st8" d="M56.5,96.62c-1.78-0.25-2.98-1.27-3.02-3.09c-0.04-1.93,1.26-2.85,3.11-2.88c1.8-0.02,2.71,1.07,2.78,2.76
			C59.45,95.31,58.43,96.38,56.5,96.62z"/>
		<path class="st9" d="M92.39,33.67c1.85,0.34,3.01,1.36,2.84,3.3c-0.15,1.7-1.19,2.84-2.99,2.62c-1.77-0.22-3.07-1.23-2.9-3.22
			C89.48,34.61,90.71,33.83,92.39,33.67z"/>
		<path class="st6" d="M89.54,87.2c-1.91-0.21-3.07-1.24-3.03-3.12c0.03-1.73,1.23-2.83,2.89-2.81c1.82,0.02,3,1.13,2.96,3.1
			C92.32,86.18,91.18,86.96,89.54,87.2z"/>
		<path class="st10" d="M76.93,92.37c-0.28,1.92-1.24,3.12-3.17,2.98c-1.61-0.12-2.89-1-2.8-2.8c0.09-1.83,1.14-3.02,3.1-2.91
			C75.72,89.75,76.73,90.74,76.93,92.37z"/>
		<path class="st11" d="M81.6,25.88c-0.22,1.69-1.07,2.95-2.77,2.99c-1.77,0.04-3.11-0.92-3.2-2.88c-0.09-1.78,0.84-2.8,2.65-2.86
			C80.18,23.06,81.24,24.08,81.6,25.88z"/>
		<path class="st6" d="M47.49,27.98c-0.18,1.78-1.1,2.85-2.84,2.83c-1.89-0.02-3.04-1.17-2.96-3.04c0.08-1.92,1.52-2.86,3.28-2.78
			C46.68,25.06,47.47,26.34,47.49,27.98z"/>
		<path class="st0" d="M146.48,54.8c-2.03-7.21-6.94-11.3-14.18-12.8c-5.69-1.18-11.45-0.51-17.18-0.77
			c-2.1-0.09-2.09,1.05-2.08,2.55c0.04,6.87,0.02,13.74,0.02,20.61c0,6.99,0.04,13.99-0.03,20.98c-0.02,1.69,0.31,2.47,2.24,2.4
			c4.49-0.15,9,0.11,13.49-0.1c9.43-0.45,15.68-5.6,17.91-14.72C148.16,66.92,148.18,60.82,146.48,54.8z M136.41,72.99
			c-1.02,2.99-2.92,5.23-5.99,6.25c-6.3,2.1-7.53,1.21-7.53-5.32c0-3.24,0-6.49,0-9.73c0-4.37,0.02-8.74-0.01-13.1
			c-0.01-1.38,0.11-2.29,1.94-2.38c6.45-0.33,11.19,3.17,12.4,9.51C138.18,63.18,138.06,68.15,136.41,72.99z"/>
	</g>
</g>
</svg>
